<svg id="Layer_1" data-name="Layer 1" xmlns="http://www.w3.org/2000/svg" viewBox="0 0 515.97 151.11"><circle cx="75.56" cy="75.56" r="75.56" fill="#fff"/><path d="M149.54,257.84l4.2-3c5.6-4,11.19-8.05,16.83-12,3.07-2.14,6.25-4.13,9.38-6.19a2,2,0,0,1,.25-.14,1.37,1.37,0,0,1,1.87.51,1.33,1.33,0,0,1-.47,1.83c-1,.62-2,1.19-2.95,1.78l-28.56,17-.5.28Zm31.24-19.71a.51.51,0,0,0-.42-.66.75.75,0,0,0-.43.05c-.89.5-1.56.93-2.42,1.49-.34.22-.5.51-.26.88s.58.34.92.12c.76-.5,1.35-.84,2.11-1.33A1.31,1.31,0,0,0,180.78,238.13Z" transform="translate(-27.66 -202.32)" fill="#1a79ae"/><path d="M193.48,236.35a49.51,49.51,0,0,0,15-18.1,49.55,49.55,0,0,0-22.11,8l-8.06-1.18-8.81,15,5.89-3.48.67,1,4.77-1.47a1.4,1.4,0,0,1,1.54,2.18l-3,4,.67,1-5.27,4.35,17.08-3.21Z" transform="translate(-27.66 -202.32)" fill="#1a79ae"/><path d="M170.16,263.54A68,68,0,0,1,45.51,313.18a42.67,42.67,0,0,0,12-9.34l2-2.68a89.61,89.61,0,0,0,5.59-8.09l.28-.43L101,237.47a9.29,9.29,0,0,1,5.91-4.08,9.42,9.42,0,0,1,7.64,1.68,9.54,9.54,0,0,1,2.08,12.79l-11.37,17.62a5.42,5.42,0,0,0-.74,4.06,5.51,5.51,0,0,0,2.35,3.42,5.41,5.41,0,0,0,7.46-1.61l11.5-17.85a19.79,19.79,0,0,0,3.21-11.64A20.19,20.19,0,0,0,91.91,231.6L57.58,284.83c-.86,1.3-1.69,2.68-2.46,4-4.33,6.84-9.26,11.83-14.45,14.64a68,68,0,0,1,121.49-60.35,39.56,39.56,0,0,0-5.11,3,41.16,41.16,0,0,0-9.69,9.71l-5.58,7.78-35.45,54.9a9.81,9.81,0,0,1-6.06,4.35h0a9.36,9.36,0,0,1-9.83-14.26L105,286c1.62-2.51-3.08-.51-5.58-2.1s-1.87-6.26-3.49-3.78l-14.58,22.6a20.22,20.22,0,0,0,9,29.51,20,20,0,0,0,9.68,1.58,23.18,23.18,0,0,0,2.54-.39,20.07,20.07,0,0,0,12.72-8.8l34.48-53.41c.78-1.21,1.52-2.46,2.24-3.71l.15-.29c4.34-6.9,9.31-11.71,14.79-14.4A63.71,63.71,0,0,1,170.16,263.54Z" transform="translate(-27.66 -202.32)" fill="#1a79ae"/><path d="M197.18,229.21c-1.46,1-3.81-.35-3.81-.35s-.5-2.68,1-3.7a1.24,1.24,0,0,1,1.81.28,1.45,1.45,0,0,0,1.39,2A1.24,1.24,0,0,1,197.18,229.21Z" transform="translate(-27.66 -202.32)" fill="#fff"/><circle cx="20.71" cy="70.79" r="1.87" fill="#fff"/><circle cx="112.83" cy="43.66" r="1.38" fill="#fff"/><path d="M71.45,237.65l.06-3a.2.2,0,0,0-.09-.17L68.91,233a.2.2,0,0,1,.11-.37l3,.06a.18.18,0,0,0,.17-.09l1.55-2.5a.2.2,0,0,1,.37.1L74,233.13a.19.19,0,0,0,.1.17l2.5,1.55a.2.2,0,0,1-.11.37l-2.94-.06a.19.19,0,0,0-.17.09l-1.55,2.51A.2.2,0,0,1,71.45,237.65Z" transform="translate(-27.66 -202.32)" fill="#fff"/><path d="M141.83,315.76l-1.09-2.24a.18.18,0,0,0-.14-.1l-2.48-.2a.17.17,0,0,1-.06-.32l2.25-1.09a.16.16,0,0,0,.09-.13l.21-2.49a.16.16,0,0,1,.31-.06l1.09,2.25a.16.16,0,0,0,.14.09l2.48.21a.17.17,0,0,1,.06.32l-2.25,1.08a.19.19,0,0,0-.09.14l-.21,2.48A.16.16,0,0,1,141.83,315.76Z" transform="translate(-27.66 -202.32)" fill="#fff"/><polygon points="227.29 118.78 229.19 118.78 229.19 111.17 235.41 111.17 235.41 109.29 229.19 109.29 229.19 104.79 235.41 104.79 235.41 102.92 227.29 102.92 227.29 118.78" fill="#199332"/><path d="M274.23,313.39a4.08,4.08,0,0,0,1.78-1.52,4.38,4.38,0,0,0,.62-2.33,4,4,0,0,0-.91-2.67,4.15,4.15,0,0,0-2.34-1.42,19.26,19.26,0,0,0-3.54-.21h-3.27V321.1h1.91v-7.21l.56-.06,5.71,7.27H277l-5.58-7.2A7.77,7.77,0,0,0,274.23,313.39ZM268.48,312v-4.92H271a6.38,6.38,0,0,1,2.21.27,2.16,2.16,0,0,1,1,.84,2.35,2.35,0,0,1,.39,1.32,2.42,2.42,0,0,1-.39,1.35,2.17,2.17,0,0,1-1.08.87,6.39,6.39,0,0,1-2.23.29Z" transform="translate(-27.66 -202.32)" fill="#199332"/><path d="M288.23,304.85a8.19,8.19,0,0,0-4.13,1.1,8,8,0,0,0-3,3.06,8.47,8.47,0,0,0-1.1,4.23,8,8,0,0,0,2.42,5.84,8.35,8.35,0,0,0,14.27-5.92,8,8,0,0,0-2.43-5.91A8.26,8.26,0,0,0,288.23,304.85Zm5.65,11.6a6.11,6.11,0,0,1-2.33,2.32,6.41,6.41,0,0,1-3.25.85,6.33,6.33,0,0,1-6.35-6.39,6.52,6.52,0,0,1,.84-3.29,6.28,6.28,0,0,1,2.34-2.35,6.22,6.22,0,0,1,3.17-.88,6.43,6.43,0,0,1,3.23.88,6.23,6.23,0,0,1,2.35,2.32,6.37,6.37,0,0,1,.84,3.25A6.57,6.57,0,0,1,293.88,316.45Z" transform="translate(-27.66 -202.32)" fill="#199332"/><polygon points="287.23 102.92 281.1 115.41 274.91 102.92 274.39 102.92 272.12 118.78 273.98 118.78 275.44 108.03 280.78 118.78 281.4 118.78 286.67 108.11 288.14 118.78 290.02 118.78 287.74 102.92 287.23 102.92" fill="#199332"/><polygon points="317.3 109.42 309.76 109.42 309.76 102.92 307.85 102.92 307.85 118.78 309.76 118.78 309.76 111.29 317.3 111.29 317.3 118.78 319.2 118.78 319.2 102.92 317.3 102.92 317.3 109.42" fill="#199332"/><polygon points="323.71 118.78 332.89 118.78 332.89 116.9 325.62 116.9 325.62 111.17 332.89 111.17 332.89 109.29 325.62 109.29 325.62 104.79 332.95 104.79 332.95 102.92 323.71 102.92 323.71 118.78" fill="#199332"/><path d="M370,305.24l-7.5,15.86h2.13l2.42-5.1h6.45l2.44,5.1H378l-7.4-15.86Zm-2.07,8.9,2.37-5,2.36,5Z" transform="translate(-27.66 -202.32)" fill="#199332"/><path d="M388.79,313.39a4,4,0,0,0,1.78-1.52,4.3,4.3,0,0,0,.63-2.33,4.06,4.06,0,0,0-.91-2.67,4.21,4.21,0,0,0-2.34-1.42,19.26,19.26,0,0,0-3.54-.21h-3.27V321.1h1.91v-7.21l.55-.06,5.72,7.27h2.29L386,313.9A7.67,7.67,0,0,0,388.79,313.39ZM383.05,312v-4.92h2.56a6.42,6.42,0,0,1,2.21.27,2.14,2.14,0,0,1,1,.84,2.36,2.36,0,0,1,.4,1.32,2.51,2.51,0,0,1-.39,1.35,2.22,2.22,0,0,1-1.08.87,6.39,6.39,0,0,1-2.23.29Z" transform="translate(-27.66 -202.32)" fill="#199332"/><polygon points="366.04 104.79 369.5 104.79 369.5 118.78 371.43 118.78 371.43 104.79 374.89 104.79 374.89 102.92 366.04 102.92 366.04 104.79" fill="#199332"/><polygon points="390.42 104.79 393.87 104.79 393.87 118.78 395.81 118.78 395.81 104.79 399.27 104.79 399.27 102.92 390.42 102.92 390.42 104.79" fill="#199332"/><path d="M437.45,304.85a8.19,8.19,0,0,0-4.13,1.1,8.07,8.07,0,0,0-3,3.06,8.47,8.47,0,0,0-1.1,4.23,8,8,0,0,0,2.43,5.84,8.35,8.35,0,0,0,14.27-5.92,8,8,0,0,0-2.43-5.91A8.27,8.27,0,0,0,437.45,304.85Zm5.65,11.6a6.25,6.25,0,0,1-2.33,2.32,6.44,6.44,0,0,1-3.25.85,6.35,6.35,0,0,1-6.36-6.39,6.53,6.53,0,0,1,.85-3.29,6.46,6.46,0,0,1,5.51-3.23,6.59,6.59,0,0,1,5.58,3.2,6.47,6.47,0,0,1,.84,3.25A6.68,6.68,0,0,1,443.1,316.45Z" transform="translate(-27.66 -202.32)" fill="#199332"/><polygon points="446.84 114.5 436.7 102.92 436.19 102.92 436.19 118.78 438.15 118.78 438.15 107.34 448.2 118.78 448.73 118.78 448.73 102.92 446.84 102.92 446.84 114.5" fill="#199332"/><polygon points="453.23 118.78 462.41 118.78 462.41 116.9 455.14 116.9 455.14 111.17 462.41 111.17 462.41 109.29 455.14 109.29 455.14 104.79 462.48 104.79 462.48 102.92 453.23 102.92 453.23 118.78" fill="#199332"/><polygon points="465.88 118.78 475.06 118.78 475.06 116.9 467.79 116.9 467.79 111.17 475.06 111.17 475.06 109.29 467.79 109.29 467.79 104.79 475.13 104.79 475.13 102.92 465.88 102.92 465.88 118.78" fill="#199332"/><path d="M514.69,305.81a16.56,16.56,0,0,0-5.11-.57h-3.39V321.1h5.11a10.14,10.14,0,0,0,4.59-.86,6.67,6.67,0,0,0,2.68-2.69,8.29,8.29,0,0,0,1-4.19,8.46,8.46,0,0,0-1.3-4.74A6.88,6.88,0,0,0,514.69,305.81Zm2,11.1a5,5,0,0,1-2.65,2,16.59,16.59,0,0,1-4.41.4H508V307.11H509a18.08,18.08,0,0,1,4.74.44,5.33,5.33,0,0,1,2.93,2.11,6.47,6.47,0,0,1,1,3.73A6.14,6.14,0,0,1,516.7,316.91Z" transform="translate(-27.66 -202.32)" fill="#199332"/><polygon points="497.57 102.92 495.67 102.92 495.67 118.78 503.54 118.78 503.54 116.92 497.57 116.92 497.57 102.92" fill="#199332"/><polygon points="515.97 104.79 515.97 102.92 506.73 102.92 506.73 118.78 515.91 118.78 515.91 116.9 508.63 116.9 508.63 111.17 515.91 111.17 515.91 109.29 508.63 109.29 508.63 104.79 515.97 104.79" fill="#199332"/><path d="M241.77,267.33l4.91-1.49c2.16-.66,4.33-1.32,6.5-1.95.68-.2,1.38-.33,2.09-.47s1.33-.25,2-.43l.33-.15a1.48,1.48,0,0,0,.69-1.12,1.6,1.6,0,0,0-.5-1.31,3.39,3.39,0,0,0-.42-.33,1.24,1.24,0,0,0-.69-.18,4.76,4.76,0,0,0-.58.06l-.82.1a23.72,23.72,0,0,0-2.66.41q-2.91.67-5.8,1.4l-3.14.77c-.4.1-.82.18-1.25.26l1.16-4.19c1-3.52,1.94-7,3-10.52,1.1-3.69,2.3-7.35,3.5-11l.81-2.47c.89-2.73,1.8-5.45,2.78-8.15.39-1.09.84-2.17,1.28-3.24.32-.77.64-1.54.94-2.32a2.15,2.15,0,0,0,0-1.67,1.92,1.92,0,0,0-1.11-1,2.81,2.81,0,0,0-.94-.16,2.1,2.1,0,0,0-2,1.3l-1.24,3.22c-1.38,3.53-2.75,7.06-4,10.62-1,2.74-1.87,5.56-2.72,8.3l-.3,1c-1.37,4.37-2.72,8.74-4,13.14-.54,1.86-1,3.74-1.49,5.62l-.66,2.57c-.13.52-.29.73-.68.87-4.06,1.51-8.12,3.05-12.18,4.59l-6.06,2.3a1.55,1.55,0,0,1,0-.23l1.18-3.62c1.05-3.25,2.1-6.51,3.24-9.73s2.54-6.89,4.2-10.91c.8-1.94,1.65-3.87,2.5-5.8.73-1.64,1.45-3.28,2.15-4.94a2.26,2.26,0,0,0-.28-2.13,1.22,1.22,0,0,0-1-.35,5,5,0,0,0-1.05.14c-.48.12-.76.6-1,1.05l-.63,1.24c-.67,1.3-1.34,2.59-1.9,3.93L224.73,243c-1.73,4.07-3.52,8.28-5.09,12.5-1.72,4.61-3.3,9.35-4.82,13.94l-1.2,3.6a1.77,1.77,0,0,1-1,1.18l-3.14,1.51c-1.24.61-2.49,1.21-3.74,1.8a116.88,116.88,0,0,0-13.95,7.8,2.68,2.68,0,0,0-1.28,2.92,2.36,2.36,0,0,0,2.26,1.78c.63.08,1.27.11,1.91.13l1.2.07,1.73.1a25,25,0,0,1,4.07.43c3.39.75,5.52,3.1,6.51,7.18l.16.75c.09.44.19.89.32,1.32a2.17,2.17,0,0,0,2.12,1.6h.3a2.19,2.19,0,0,0,1.91-2.15l.13-1.64c.08-1,.16-2,.22-3,.32-5.77,1.82-11.4,3.46-17.15a1.64,1.64,0,0,1,.74-.84q6.67-2.87,13.4-5.61c1.2-.49,2.42-.93,3.73-1.39l1.07-.39c0,.37-.07.66-.13,1-.28,1.2-.56,2.4-.85,3.6-.34,1.45-.69,2.91-1,4.36q-1.25,5.5-2.42,11Q230,295.72,228.68,302l-.17.83c-.59,2.81-1.18,5.62-1.71,8.45a44.38,44.38,0,0,0-1,9.91c0,.67.07,1.93,1.4,2.08h.2c.87,0,1.46-.61,1.72-1.82l.15-.64c.21-.91.41-1.83.59-2.74l.79-4c.45-2.32.9-4.65,1.38-7,.61-2.91,1.25-5.81,1.89-8.71l1.54-7.05c.44-2,.87-4.06,1.34-6.08.37-1.6.77-3.19,1.17-4.78l3.13-12.5A.83.83,0,0,1,241.77,267.33Zm-30,12.24-2.38,12.51a11.46,11.46,0,0,0-4.74-4c-1.57-.62-3.22-1.1-4.81-1.56l-.88-.26C203.34,283.67,207.85,281.45,211.82,279.57Z" transform="translate(-27.66 -202.32)" fill="#1a79ae"/><path d="M271.89,273.57a23.79,23.79,0,0,0-10.72-2.36l-1.23,0c6.84-5.11,16.8-14.6,16.8-22.51a8.06,8.06,0,0,0-1.23-4.34,7.1,7.1,0,0,0-3.67-2.89,8.66,8.66,0,0,0-3.11-.55c-6.07,0-12.25,6.24-12.25,12.36a9.31,9.31,0,0,0,.29,2.31c0,.17.09.32.12.41a1.88,1.88,0,0,0,1.87,1.32,2.29,2.29,0,0,0,2.37-2.22l0-.25-.07-.3a4,4,0,0,0-.14-.4,3.92,3.92,0,0,1-.36-1.65c0-3.61,4.42-7.73,8.3-7.73a5.42,5.42,0,0,1,1.68.26,3.6,3.6,0,0,1,1.79,1.39,3.65,3.65,0,0,1,.53,2c0,7.8-16.77,22.13-22.31,24.1-2.74.14-3.72,1.44-3.72,2.61s.94,2.2,2.72,2.2a5.8,5.8,0,0,0,2.27-.52,20.38,20.38,0,0,1,8.79-1.83,15.85,15.85,0,0,1,9,2.4l.39.28h.52a2.6,2.6,0,0,0,2.39-2.47A1.83,1.83,0,0,0,271.89,273.57Z" transform="translate(-27.66 -202.32)" fill="#1a79ae"/><path d="M306.7,279.88c-3.2.69-6.7,1.34-8.39.93-2.72-.64-4.41-2.73-4.88-6.08-.17-1.27-.23-7.6-.3-8.85,0-.56,0-1.1-.08-1.65v-.29l-.81.53a42.1,42.1,0,0,0-7.82,8.07c-1.1,1.36-2.23,2.77-3.43,4.09a18,18,0,0,0-1.52,2l-.4.58a7,7,0,0,1-.55.67l-.17.18a2.83,2.83,0,0,1-3.3,1,2.62,2.62,0,0,1-1.66-2.36.41.41,0,0,1,0-.11,20.3,20.3,0,0,1,1.15-3.92.58.58,0,0,1,.05-.14l.08-.23.06-.16v0l0-.06a93.29,93.29,0,0,1,6.25-13.3c.11-.21.21-.43.31-.64l.28-.57a2.12,2.12,0,0,1,2.67-1.16,2.2,2.2,0,0,1,1.16,1.27,2.28,2.28,0,0,1-.09,1.74c-.41.83-.83,1.65-1.26,2.47s-.79,1.52-1.17,2.29c-.54,1.11-1.07,2.21-1.59,3.33a58.86,58.86,0,0,1,8.27-8.39,14.69,14.69,0,0,1,2.49-1.63,3.48,3.48,0,0,1,5.42,3c0,.72,0,1.44.06,2.17s0,6.67.09,7.5a21.08,21.08,0,0,0,.61,3.52,1.59,1.59,0,0,0,1.68,1.19,23.9,23.9,0,0,0,7.54-1,6.88,6.88,0,0,1,.9-.2,76.42,76.42,0,0,1,16.54-.87,16.89,16.89,0,0,1,3.39.63l.53.14a1.06,1.06,0,0,1,.44.24,1.31,1.31,0,0,1,.44,1.18,1.34,1.34,0,0,1-.7,1l-.17.07a5.85,5.85,0,0,1-1.6.19c-.88,0-1.78,0-2.67,0-1.77,0-3.61,0-5.38.11-4.14.35-8.3.86-12.39,1.5Z" transform="translate(-27.66 -202.32)" fill="#1a79ae"/><path d="M358,269.28a19.74,19.74,0,0,1-.42,5.1,3.79,3.79,0,0,1-1.37,1.92,3.52,3.52,0,0,1-2.17.72,4.75,4.75,0,0,1-1.92-.43,24.56,24.56,0,0,1-4-2.4l-.44-.31-2.23,3.35.36.29a16.41,16.41,0,0,0,4.27,2.7,10.63,10.63,0,0,0,4,.78,8.49,8.49,0,0,0,4.62-1.23,7,7,0,0,0,2.75-3.33c.54-1.36.8-3.66.8-7.05v-21.9H358Z" transform="translate(-27.66 -202.32)" fill="#1a79ae"/><path d="M395.35,267.13A22.87,22.87,0,0,1,395,272a7,7,0,0,1-1.32,2.68,6.4,6.4,0,0,1-2.23,1.71,6.72,6.72,0,0,1-2.81.62,7.89,7.89,0,0,1-3.38-.8,6.09,6.09,0,0,1-2.45-1.94,6.69,6.69,0,0,1-1-2.92,40.86,40.86,0,0,1-.12-4.17V247.49h-4.2v19.64a25.63,25.63,0,0,0,.61,6.83,9.32,9.32,0,0,0,3.87,5.12,12.17,12.17,0,0,0,6.87,1.92A10.06,10.06,0,0,0,395.2,279a9.84,9.84,0,0,0,3.49-4.8,23.78,23.78,0,0,0,.86-7V247.49h-4.2Z" transform="translate(-27.66 -202.32)" fill="#1a79ae"/><polygon points="408.98 68.6 388.62 45.17 387.18 45.17 387.18 77.88 391.49 77.88 391.49 54.74 411.68 77.88 413.14 77.88 413.14 45.17 408.98 45.17 408.98 68.6" fill="#1a79ae"/><rect x="427.87" y="45.17" width="4.2" height="32.71" fill="#1a79ae"/><path d="M490.08,246.69a16.86,16.86,0,0,0-14.75,8.58,17.46,17.46,0,0,0-2.28,8.72,16.42,16.42,0,0,0,5,12,17.23,17.23,0,0,0,29.45-12.18,16.5,16.5,0,0,0-5-12.19A17,17,0,0,0,490.08,246.69Zm6.72,28.48a13.14,13.14,0,0,1-6.58,1.72A12.82,12.82,0,0,1,477.36,264a13.26,13.26,0,0,1,1.7-6.67,12.86,12.86,0,0,1,4.74-4.75,12.67,12.67,0,0,1,6.42-1.76,12.81,12.81,0,0,1,13,13,13.22,13.22,0,0,1-1.69,6.64A12.29,12.29,0,0,1,496.8,275.17Z" transform="translate(-27.66 -202.32)" fill="#1a79ae"/><path d="M529.52,265.47a15.06,15.06,0,0,0,5.43-1.05,8.12,8.12,0,0,0,3.71-3.16,9,9,0,0,0,1.3-4.82,8.43,8.43,0,0,0-1.89-5.56,8.69,8.69,0,0,0-4.87-2.94,38.22,38.22,0,0,0-7.28-.45h-6.83V280.2h4.19V265.49h1l11.41,14.71h5.22Zm3.32-13.33a4.29,4.29,0,0,1,2,1.67,4.63,4.63,0,0,1,.78,2.62,4.82,4.82,0,0,1-.77,2.68,4.36,4.36,0,0,1-2.14,1.73,13.27,13.27,0,0,1-4.5.57l-5,0v-9.75h5.09A13.39,13.39,0,0,1,532.84,252.14Z" transform="translate(-27.66 -202.32)" fill="#1a79ae"/></svg>