<svg id="Layer_1" data-name="Layer 1" xmlns="http://www.w3.org/2000/svg" viewBox="0 0 293.7 245.43"><circle cx="122.72" cy="122.72" r="122.72" fill="#fff"/><path d="M314.77,271.43l6.82-4.89c9.11-6.51,18.18-13.08,27.35-19.5,5-3.48,10.14-6.71,15.22-10.06a4.13,4.13,0,0,1,.42-.22,2.23,2.23,0,0,1,3,.83,2.15,2.15,0,0,1-.78,3c-1.57,1-3.18,1.93-4.78,2.88l-46.39,27.68-.82.47Zm50.75-32a.83.83,0,0,0-.69-1.08,1.18,1.18,0,0,0-.69.07c-1.45.83-2.53,1.52-3.94,2.43-.54.35-.81.84-.42,1.43s.94.54,1.49.19c1.24-.81,2.19-1.36,3.43-2.16A2.08,2.08,0,0,0,365.52,239.43Z" transform="translate(-116.82 -181.26)" fill="#1a79ae"/><path d="M386.14,236.53c16.51-11.71,24.38-29.39,24.38-29.39s-19.3,1.41-35.91,13l-13.08-1.91-14.31,24.32,9.56-5.65,1.09,1.55,7.75-2.38a2.28,2.28,0,0,1,2.49,3.54l-4.87,6.49,1.1,1.55-8.57,7.08,27.74-5.22Z" transform="translate(-116.82 -181.26)" fill="#1a79ae"/><path d="M348.27,280.69a110.49,110.49,0,0,1-202.46,80.62,69.34,69.34,0,0,0,19.42-15.16l3.33-4.35a150.37,150.37,0,0,0,9.08-13.15l.44-.69L236,238.36a15.06,15.06,0,0,1,9.6-6.63A15.22,15.22,0,0,1,258,234.46a15.5,15.5,0,0,1,3.37,20.77l-18.46,28.61a8.71,8.71,0,0,0-1.2,6.59,8.76,8.76,0,0,0,15.93,2.95l18.67-29a32.08,32.08,0,0,0,5.22-18.91,32.79,32.79,0,0,0-60.32-16.66l-55.76,86.45c-1.4,2.12-2.74,4.35-4,6.56-7,11.11-15,19.21-23.48,23.77a108.56,108.56,0,0,1-5.69-18.37,110.48,110.48,0,0,1,203-79.65,64.8,64.8,0,0,0-8.29,4.87,66.56,66.56,0,0,0-15.74,15.77l-9.06,12.64L244.59,370a16,16,0,0,1-9.84,7.07h0a15.21,15.21,0,0,1-16-23.17l23.65-36.69c2.62-4.07-5-.82-9.06-3.41s-3-10.16-5.67-6.13L204,344.39a32.84,32.84,0,0,0,14.59,47.93,32.27,32.27,0,0,0,15.72,2.57,36.31,36.31,0,0,0,4.13-.64A32.51,32.51,0,0,0,259.07,380l56-86.75c1.27-2,2.48-4,3.65-6l.23-.47c7.05-11.19,15.13-19,24-23.38A104,104,0,0,1,348.27,280.69Z" transform="translate(-116.82 -181.26)" fill="#1a79ae"/><path d="M392.16,224.94c-2.38,1.67-6.19-.57-6.19-.57s-.82-4.35,1.56-6a2,2,0,0,1,2.93.46,2.42,2.42,0,0,1,.26,2.21,2.46,2.46,0,0,1,2,1A2,2,0,0,1,392.16,224.94Z" transform="translate(-116.82 -181.26)" fill="#fff"/><circle cx="33.64" cy="114.98" r="3.04" fill="#fff"/><circle cx="183.26" cy="70.91" r="2.24" fill="#fff"/><path d="M188,238.64l.1-4.79a.33.33,0,0,0-.16-.28l-4.07-2.52a.32.32,0,0,1,.18-.59l4.78.1a.33.33,0,0,0,.28-.15l2.52-4.07a.33.33,0,0,1,.6.18l-.1,4.78a.3.3,0,0,0,.15.28l4.07,2.52a.32.32,0,0,1-.18.59l-4.78-.1a.33.33,0,0,0-.28.15l-2.52,4.07A.32.32,0,0,1,188,238.64Z" transform="translate(-116.82 -181.26)" fill="#fff"/><path d="M302.25,365.51l-1.76-3.64a.3.3,0,0,0-.23-.16l-4-.33a.27.27,0,0,1-.1-.52l3.65-1.76a.29.29,0,0,0,.15-.22l.34-4a.27.27,0,0,1,.51-.1l1.77,3.65a.26.26,0,0,0,.22.15l4,.34a.27.27,0,0,1,.1.51l-3.65,1.77a.27.27,0,0,0-.15.22l-.34,4A.27.27,0,0,1,302.25,365.51Z" transform="translate(-116.82 -181.26)" fill="#fff"/></svg>