<svg id="Layer_1" data-name="Layer 1" xmlns="http://www.w3.org/2000/svg" viewBox="0 0 399.41 25.76"><path d="M446.44,322.14a4.29,4.29,0,0,0-.39-1.21.88.88,0,0,0-.85-.53l-.19,0a.77.77,0,0,0-.56.32.72.72,0,0,0-.08.53.54.54,0,0,0-.25-.06.66.66,0,0,0-.54.32,1.11,1.11,0,0,0-.16.45l0,.21a7,7,0,0,0-.12.82.62.62,0,0,0-.54-.3.68.68,0,0,0-.64.54,4.2,4.2,0,0,0-.17.72,11.73,11.73,0,0,0,.16,3.95,5.67,5.67,0,0,1-.65-.09c-.06,0-.09,0-.08-.14s.07-.46.12-.72a3.28,3.28,0,0,0,0-1.59,3.23,3.23,0,0,0-2.29-2.34l-.25-.07a3.39,3.39,0,0,1-.58-.18l0-.13c0-.12,0-.54,0-.54,0-.3,0-.61,0-.91a1.64,1.64,0,0,0-.09-.54c.1-.09.26-.25.17-.44a1,1,0,0,0-.38-.38.73.73,0,0,0-.37-.08l-1.61,0a1,1,0,0,0-.25,0,.48.48,0,0,0-.32.32.38.38,0,0,0,.1.38l0,.14a2,2,0,0,0,0,.34c0,.29,0,1.69,0,1.69,0,.19,0,.23-.23.24l-.43,0c-.24,0-.48,0-.72,0l-6.17.72c-.95.1-2.14.24-3.26.31h-.32a4.1,4.1,0,0,1-2.2-.61,6.19,6.19,0,0,0-.68-.35l-.84-.38-.94-.43a1.22,1.22,0,0,1-.75-1.37,3.49,3.49,0,0,0,0-.55c0-.23-.13-.52-.65-.54a.53.53,0,0,0-.59.51c0,.16,0,.33,0,.49v.34c0,.14,0,.3,0,.47a1.16,1.16,0,0,0-1,.79s-.44.95-.53,1.16,0,.07-.08.08a.78.78,0,0,0-.66.45.48.48,0,0,0,.17.69.41.41,0,0,0,.19,0l.23,0,0,.25c.05.32.18,1.07.18,1.07a12.45,12.45,0,0,0,.26,1.3.81.81,0,0,0-.47.83v.52c0,.35,0,.71.05,1.07a1.51,1.51,0,0,0,.17.65.77.77,0,0,0,.61.34.38.38,0,0,0,.23-.07,16.78,16.78,0,0,0,.36,3.2c.13.58.23,1.19.33,1.84l.1.66a2,2,0,0,1,0,.29h-.27c-.32,0-.62,0-.93.06a10.81,10.81,0,0,0-1.28.29l-.22.06a.52.52,0,0,0-.34.44c0,.19.15.29.28.38a.63.63,0,0,0,.24.09,9,9,0,0,0,2,.2l.8,0a.42.42,0,0,0,.43-.49v-.22a.19.19,0,0,0,.1.05h0a4.19,4.19,0,0,1,.81.17,4.41,4.41,0,0,0,.7.16,2.87,2.87,0,0,1,.72.27l.32.14a6.54,6.54,0,0,1-1.19.37,26.63,26.63,0,0,1-5.11.42H414a21.53,21.53,0,0,1-4.83-.54c-.28-.07-.58-.17-.86-.26l-.08,0a4.2,4.2,0,0,0-.93-.1,4.32,4.32,0,0,1-.69-.06c-.08,0-.35-.08-7.11-.06l-100.13-.32c-11.92-.49-18.52-1.22-19.62-2.18A71.12,71.12,0,0,0,266.6,327l-.19-.08a10.38,10.38,0,0,0-3.7-.82l-.63,0a8.81,8.81,0,0,0-2.65.66,9.32,9.32,0,0,0-2.7,1.75L255,330.1l-11.68,11.69a3.24,3.24,0,0,1-2.26,1,3.1,3.1,0,0,1-3.1-3.31,3.21,3.21,0,0,1,1-2.09l3.18-3.19a.22.22,0,0,0,0-.27.26.26,0,0,0-.3-.13h-.24a1.76,1.76,0,0,1,0-.25.25.25,0,0,0-.11-.29.23.23,0,0,0-.29,0l-3.29,3.28a4.38,4.38,0,0,0,.57,6.65,4.28,4.28,0,0,0,2,.77,3.91,3.91,0,0,0,.57,0,4.31,4.31,0,0,0,3.08-1.29l11.38-11.38c.21-.2.43-.44.71-.75l.07-.08a9.44,9.44,0,0,1,5.92-3.17l.53,0a9.07,9.07,0,0,1,3.24.73l.22.09a68.88,68.88,0,0,1,12.73,8.36c1.18,1,8,1.83,20.23,2.35l100.32.44c6.71,0,8.39.09,8.61.17a10,10,0,0,0,1.82.49,33.83,33.83,0,0,0,8.06.23,30.1,30.1,0,0,0,3.05-.45,4.28,4.28,0,0,0,1.3-.49,1,1,0,0,0,.58-.91,1.07,1.07,0,0,0-.63-.9,3.6,3.6,0,0,0-.95-.33v.1h0l-1.17-.21h0l0-.1c-.41-.08-.84-.17-1.3-.22a.27.27,0,0,0-.16.05v0c-.07-.62-.14-1.25-.24-1.87,0-.24-.1-.47-.15-.7l-.13-.57a.72.72,0,0,0,.29.06l.16,0a.62.62,0,0,0,.49-.51.34.34,0,0,0,.08.09.46.46,0,0,0,.25.07.49.49,0,0,0,.28-.08,1,1,0,0,0,.34-.37l.11-.23c.21-.42.42-.85.6-1.29s.22-.61.31-.91c0,0,.11-.38.15-.5a2.06,2.06,0,0,1,2-1.47c.33,0,.67-.05,1-.05h.23c2.07.08,4.81.19,7.55.33a3.88,3.88,0,0,1,1.09.26,1.69,1.69,0,0,1,1.17,1.18,3.58,3.58,0,0,1,.12,1,7.89,7.89,0,0,1-2.26,5l-.29.3c-.18.18-.36.36-.53.56a1.06,1.06,0,0,0-.06,1.34,2.43,2.43,0,0,0,.52.54,4.61,4.61,0,0,0,1.79.68,18.8,18.8,0,0,0,3.52.29h.24a6.79,6.79,0,0,0,3.34-.72,1.57,1.57,0,0,0,.76-.85.36.36,0,0,0-.05-.34c0-.09-.09-.15-.23-.17a.24.24,0,0,0-.18.07l-.27.28a2.14,2.14,0,0,1-.41.39,3,3,0,0,1-1.24.52,8,8,0,0,1-1.71.15h-.89a13.74,13.74,0,0,1-3.13-.36,3.2,3.2,0,0,1-1.25-.56.7.7,0,0,1-.32-.5.75.75,0,0,1,.26-.53l.07-.07a9,9,0,0,0,2.38-3.32,7.49,7.49,0,0,0,.61-3.27,2.43,2.43,0,0,0-1.61-2.25,4.82,4.82,0,0,0-1.47-.36c-1.93-.11-3.89-.21-6-.28l-1.32,0c-.54,0-1.06,0-1.55,0a2.62,2.62,0,0,0-2.49,1.85c0,.16-.11.33-.16.5a5.2,5.2,0,0,1,.66-2,1.44,1.44,0,0,1,1.18-.8c1-.07,2-.14,3.09-.14,3.2,0,6.57,0,10.61.08.7,0,1.45.06,2.35.16a4,4,0,0,1,1.75.54.9.9,0,0,1,.49.83c0,.73,0,1.29,0,1.81a8.82,8.82,0,0,0,.11,1.39,1,1,0,0,0,1.16,1c.39,0,.81,0,1.31,0H444a2.31,2.31,0,0,0,.51-.07l.16,0a1.5,1.5,0,0,0,1.12-.91,6.47,6.47,0,0,0,.58-1.95A28.65,28.65,0,0,0,446.44,322.14Zm-28.37,15.47c-.55,0-1.08,0-1.61-.06a8.19,8.19,0,0,1,1.33-.1H418C418,337.53,418,337.59,418.07,337.61Zm.39-13.23a35.34,35.34,0,0,0-.15,7.48c0,.12,0,.24.06.43l.05.32a.49.49,0,0,1,0,.21s0,.07,0,.07v0a1.7,1.7,0,0,1-.15-.52c0-.54-.09-1.12-.09-1.69,0-2.1,0-4.15,0-6.17,0-.49.07-1,.12-1.47,0-.18,0-.36.05-.54a.45.45,0,0,1,.22.4A8.08,8.08,0,0,1,418.46,324.38Zm18.45-1.69-.14-.11-.48-.06v-1.67h0v-.1h0l0,.11.54,0,.84.08c0,.55,0,1,0,1.54,0,.06,0,.12-.24.12l-.56,0v.09Zm4.49,9.39,0-.1a6.32,6.32,0,0,1-.15-1.05c0-.34,0-.68,0-1v-.18c0-.38,0-.77,0-1.15a.41.41,0,0,0,0-.11l.08,0a2,2,0,0,0,.62.11,1.43,1.43,0,0,0,.29,0l.05.1a5.34,5.34,0,0,0,.3.58.92.92,0,0,0,.81.47h0l0,.15.07.3c.08.38.17.77.28,1.15a.63.63,0,0,0,.61.49c.16,0,.44-.07.57-.5l.05-.15a8.73,8.73,0,0,0,.28-1.12,25.14,25.14,0,0,0,.31-4.83,13.27,13.27,0,0,0-.54-4.1.29.29,0,0,1,.16,0,.31.31,0,0,1,.28.18,3.22,3.22,0,0,1,.31,1,30.21,30.21,0,0,1,.08,6.93,8.85,8.85,0,0,1-.5,2.23c-.21.57-.53.84-1,.85l-1,0-1.39,0h-.39A.18.18,0,0,1,441.4,332.08Zm1.4-8.34a10.25,10.25,0,0,1,0,3,2.83,2.83,0,0,1-.15.53,12.67,12.67,0,0,1,0-3.31,2.35,2.35,0,0,1,.14-.52A.89.89,0,0,1,442.8,323.74Zm.5,5.3a.24.24,0,0,1-.12-.06c-.13-.23-.25-.49-.36-.74a2,2,0,0,0,.41-.65c0,.48,0,1,.07,1.45Zm1.36.4c-.06.43-.17.87-.27,1.29l.1,0-.13.08-.05.14,0,0c-.1-.53-.19-1-.3-1.51a3.28,3.28,0,0,0,.84-1.7C444.79,328.32,444.74,328.88,444.66,329.44Zm-.35-2.55a4.53,4.53,0,0,1-.38,1.43c0-.49,0-1,0-1.49,0-1.27,0-2.65.09-4.23a2.32,2.32,0,0,1,.13-.58h0a3.26,3.26,0,0,1,.16.67A20.17,20.17,0,0,1,444.31,326.89Zm-27.41-2.31a.69.69,0,0,1,.17.17.49.49,0,0,0,.39.24h0c0,.91,0,1.78,0,2.62a.83.83,0,0,0-.23-.19c-.13-.76-.29-1.75-.45-2.74a.58.58,0,0,0,0-.14Zm.61-1v.38l-.16-.1a1.77,1.77,0,0,0-.37-.12l0-.09.31-.66a3.8,3.8,0,0,1,.26-.49l.06-.07,0,.14A8.42,8.42,0,0,0,417.51,323.54Zm1.47,8.22a34,34,0,0,1,.11-6.92c.08-.66.1-1.36.12-1.92a.86.86,0,0,0,0-.23l.06,0c.29.16.54.3.79.42l.61.28.12.05c.44.2.88.4,1.3.63a4.76,4.76,0,0,0,2.28.61h.13c.9,0,1.9-.1,3-.23l2.41-.31c1.79-.24,3.65-.49,5.51-.56a.92.92,0,0,0,.44-.15.74.74,0,0,0,.3.16,5.24,5.24,0,0,0,1.05.14,2.16,2.16,0,0,0,.86-.17.62.62,0,0,1,.26-.06,1.58,1.58,0,0,1,.32.06l.27.07a2.54,2.54,0,0,1,1.88,3,7.23,7.23,0,0,0-.15.81,2.8,2.8,0,0,0-.93-.5,6.9,6.9,0,0,0-2.15-.41c-1.4-.05-2.82-.06-4.2-.08h-1.14c-2.2,0-4.49-.05-6.74-.05h-.1c-1.17,0-2.34.08-3.22.14a2,2,0,0,0-1.71,1.17,6.18,6.18,0,0,0-.74,2.32,5.9,5.9,0,0,1-.67,2.26h0a1.55,1.55,0,0,0,0-.21C419,332,419,331.89,419,331.76Z" transform="translate(-47.29 -318.24)" fill="#1a79ae"/><path d="M247.47,319.49a3.12,3.12,0,0,1,2.15,5.37l-3.74,3.74a.64.64,0,0,0-.19.45.65.65,0,0,0,.18.44.67.67,0,0,0,.45.18.63.63,0,0,0,.44-.18l3.8-3.8a4.27,4.27,0,0,0,1.2-2.32,4.35,4.35,0,0,0-4.32-5.13l-.47,0a4.5,4.5,0,0,0-2.68,1.34l-11.24,11.23c-.26.27-.54.56-.81.86a9.84,9.84,0,0,1-6,3.29,4,4,0,0,1-.52,0,9.55,9.55,0,0,1-3.39-.78l-.1,0a18.54,18.54,0,0,0-1.81-.58l-1.28-.33-.47,0a7.33,7.33,0,0,0-3.28.9,12.63,12.63,0,0,1-2.66,1L112.08,334l-2.71-.13a32.83,32.83,0,0,0-6.69.73,26.16,26.16,0,0,1-5.19.69h-.17a6.13,6.13,0,0,1-4.25-1.6c-.44-.4-.89-.78-1.39-1.2l-.14-.12-1.07-.92c-.56-.5-1.29-1.17-2-1.89a2.33,2.33,0,0,1-.71-2.21,2.26,2.26,0,0,1,1.65-1.67,2.48,2.48,0,0,1,.54-.06,2.34,2.34,0,0,1,1.63.69,1.37,1.37,0,0,0,.94.51.87.87,0,0,0,.26,0,2.38,2.38,0,0,0,.81-.52,2.38,2.38,0,0,1,1.57-.63,2.53,2.53,0,0,1,.71.1,2.14,2.14,0,0,1,1.52,1.71,2.32,2.32,0,0,1-.74,2.14c-.63.63-1.3,1.24-2,1.85l-.7.64c-.18.17-.37.33-.57.5l-.14.12a.27.27,0,0,0-.08.19.25.25,0,0,0,.08.18c.21.18.4.33.6.47,0,0,.07,0,.15,0h0s.1,0,.21-.11c.52-.42,1.1-.89,1.63-1.39l.42-.39a9.09,9.09,0,0,0,1.94-2.22,3.45,3.45,0,0,0-3.07-5.08,3.31,3.31,0,0,0-2.2.79.7.7,0,0,1-.42.21.64.64,0,0,1-.4-.2,3.41,3.41,0,0,0-2.22-.8,3.49,3.49,0,0,0-2.32.87,3.38,3.38,0,0,0-.52,4.54,10.29,10.29,0,0,0,1.28,1.47c.9.81,1.82,1.62,2.83,2.49l1.3,1.13a6.62,6.62,0,0,0,4.06,1.6c.3,0,.62,0,1,0a25.07,25.07,0,0,0,5.19-.69,32.07,32.07,0,0,1,6.53-.7l2.57.06L213,336.3a12.88,12.88,0,0,0,2.93-1.05,6.54,6.54,0,0,1,2.81-.78H219l2.95.95a10.24,10.24,0,0,0,3.74.84l.62,0a9.47,9.47,0,0,0,4.73-1.83l.59-.51c.68-.58,1.24-1.1,1.83-1.71l11.79-11.79A3.09,3.09,0,0,1,247.47,319.49Z" transform="translate(-47.29 -318.24)" fill="#1a79ae"/><path d="M91.18,334.13a.47.47,0,0,0-.19-.06l-.08,0h0a6.11,6.11,0,0,1-2.92.73,7.13,7.13,0,0,1-.79-.05c-2-.23-3.94-.56-5.81-.88a32.54,32.54,0,0,0-5.63-.5c-1.07,0-2.15.06-3.21.16a33.36,33.36,0,0,0-5.33,1.18l-.38.11a22.42,22.42,0,0,1-6,.82,23.62,23.62,0,0,1-4.41-.43c-.56-.1-1.11-.23-1.66-.35l-.29-.06c-.6-.14-1.31-.3-2-.43a20.26,20.26,0,0,0-3.75-.34l-1.21,0a.23.23,0,0,0-.23.24v.79a.29.29,0,0,0,.07.18.37.37,0,0,0,.21.06,2.07,2.07,0,0,1,.35,0c.31,0,.63,0,.95,0a20,20,0,0,1,5,.67,27.78,27.78,0,0,0,7,.93A24.2,24.2,0,0,0,68,335.82a26.3,26.3,0,0,1,7.84-1.18,31.84,31.84,0,0,1,5.79.56c1.77.32,3.63.6,5.55.81a8.08,8.08,0,0,0,.85.05,7.09,7.09,0,0,0,2.67-.51c.34-.13.67-.31,1-.47l.1-.05a.28.28,0,0,0,.12-.18.24.24,0,0,0-.08-.21C91.57,334.44,91.39,334.28,91.18,334.13Z" transform="translate(-47.29 -318.24)" fill="#1a79ae"/></svg>