<svg id="Layer_1" data-name="Layer 1" xmlns="http://www.w3.org/2000/svg" xmlns:xlink="http://www.w3.org/1999/xlink" viewBox="0 0 1235.69 138.93"><defs><linearGradient id="linear-gradient" x1="1215.22" y1="273.77" x2="1306.29" y2="273.77" gradientUnits="userSpaceOnUse"><stop offset="0" stop-color="#1c63a0"/><stop offset="0.05" stop-color="#257195"/><stop offset="0.15" stop-color="#368c7f"/><stop offset="0.27" stop-color="#439f6f"/><stop offset="0.38" stop-color="#4bab65"/><stop offset="0.49" stop-color="#4daf62"/><stop offset="0.95" stop-color="#1c689f"/></linearGradient><linearGradient id="linear-gradient-2" x1="1211.88" y1="304.83" x2="1247.62" y2="304.83" xlink:href="#linear-gradient"/></defs><path d="M142.37,360.21a6.87,6.87,0,0,1-6.89,6.89H77.39a6.79,6.79,0,0,1-6.79-6.89V297.06a6.85,6.85,0,0,1,6.79-6.9,7,7,0,0,1,6.9,6.9v56.36h51.19A6.84,6.84,0,0,1,142.37,360.21Z" transform="translate(-70.6 -228.17)" fill="#1a79ae"/><path d="M245.07,357.4a6.88,6.88,0,0,1-3.45,9.06,6.28,6.28,0,0,1-2.8.64,7,7,0,0,1-6.25-4l-23.92-52.69A11.29,11.29,0,0,0,198.41,304a11.17,11.17,0,0,0-10.24,6.47l-24,52.69a6.82,6.82,0,1,1-12.39-5.71l23.92-52.58a24.88,24.88,0,0,1,45.37,0Zm-34.38-15.08A12.28,12.28,0,1,1,198.41,330,12.27,12.27,0,0,1,210.69,342.32Z" transform="translate(-70.6 -228.17)" fill="#1a79ae"/><path d="M320.18,297.06a6.76,6.76,0,0,1-6.79,6.79H286.56v56.36a6.79,6.79,0,0,1-6.79,6.89,6.88,6.88,0,0,1-6.9-6.89V303.85H246.15a6.86,6.86,0,0,1-6.9-6.79,7,7,0,0,1,6.9-6.9h67.24A6.85,6.85,0,0,1,320.18,297.06Z" transform="translate(-70.6 -228.17)" fill="#1a79ae"/><path d="M411.88,297.06a6.85,6.85,0,0,1-6.89,6.79H337.74a6.76,6.76,0,0,1-6.79-6.79,6.85,6.85,0,0,1,6.79-6.9H405A6.94,6.94,0,0,1,411.88,297.06Zm0,31.57a6.94,6.94,0,0,1-6.89,6.9H337.74a6.86,6.86,0,0,1-6.79-6.9,6.76,6.76,0,0,1,6.79-6.79H405A6.85,6.85,0,0,1,411.88,328.63Zm0,31.58A6.87,6.87,0,0,1,405,367.1H337.74a6.84,6.84,0,0,1,0-13.68H405A6.84,6.84,0,0,1,411.88,360.21Z" transform="translate(-70.6 -228.17)" fill="#1a79ae"/><path d="M504.67,344.47A22.63,22.63,0,0,1,482,367.1H435.16a6.84,6.84,0,1,1,0-13.68H482a8.95,8.95,0,0,0,0-17.89H446.37a22.69,22.69,0,0,1,0-45.37h46.87a6.94,6.94,0,0,1,6.9,6.9,6.85,6.85,0,0,1-6.9,6.79H446.37a9,9,0,0,0,0,18H482A22.63,22.63,0,0,1,504.67,344.47Z" transform="translate(-70.6 -228.17)" fill="#1a79ae"/><path d="M587.75,297.06a6.76,6.76,0,0,1-6.79,6.79H554.13v56.36a6.79,6.79,0,0,1-6.79,6.89,6.88,6.88,0,0,1-6.9-6.89V303.85H513.72a6.86,6.86,0,0,1-6.9-6.79,7,7,0,0,1,6.9-6.9H581A6.85,6.85,0,0,1,587.75,297.06Z" transform="translate(-70.6 -228.17)" fill="#1a79ae"/><path d="M710.71,360.21a6.88,6.88,0,0,1-6.9,6.89H645.73a6.78,6.78,0,0,1-6.79-6.89V297.06a6.85,6.85,0,0,1,6.79-6.9,6.94,6.94,0,0,1,6.89,6.9v56.36h51.19A6.85,6.85,0,0,1,710.71,360.21Z" transform="translate(-70.6 -228.17)" fill="#1a79ae"/><path d="M813.4,357.4a6.89,6.89,0,0,1-3.44,9.06,6.35,6.35,0,0,1-2.81.64,7,7,0,0,1-6.25-4L777,310.42A11.29,11.29,0,0,0,766.74,304a11.17,11.17,0,0,0-10.23,6.47l-24,52.69a6.83,6.83,0,1,1-12.4-5.71L744,304.82a24.87,24.87,0,0,1,45.36,0ZM779,342.32A12.29,12.29,0,1,1,766.74,330,12.28,12.28,0,0,1,779,342.32Z" transform="translate(-70.6 -228.17)" fill="#1a79ae"/><path d="M903.6,297.06v31.57a42.43,42.43,0,0,1-2.37,14.55,35.47,35.47,0,0,1-7.33,12.5c-6.89,7.43-16.7,11.42-28.34,11.42h-4.85c-11.53,0-21.33-4-28.23-11.42a35.62,35.62,0,0,1-7.33-12.5,42.45,42.45,0,0,1-2.48-14.55V297.06a6.9,6.9,0,1,1,13.8,0v31.57c0,12,6.35,24.79,24.24,24.79h4.85c18,0,24.36-12.83,24.36-24.79V297.06a6.94,6.94,0,0,1,6.89-6.9A6.85,6.85,0,0,1,903.6,297.06Z" transform="translate(-70.6 -228.17)" fill="#1a79ae"/><path d="M999.62,297.06v63.15a6.87,6.87,0,0,1-4.1,6.35,7.81,7.81,0,0,1-2.69.54,7,7,0,0,1-4.74-1.83L932.37,312.9v47.31a6.79,6.79,0,0,1-6.79,6.89,6.87,6.87,0,0,1-6.89-6.89V297.06a6.75,6.75,0,0,1,4.2-6.25,6.59,6.59,0,0,1,7.33,1.29l55.71,52.26v-47.3a6.85,6.85,0,1,1,13.69,0Z" transform="translate(-70.6 -228.17)" fill="#1a79ae"/><path d="M1026.23,328.63c0,15.3,10.89,24.79,28.24,24.79h5.39c8.94,0,16.27-2.48,21.22-7.22a6.86,6.86,0,1,1,9.49,9.91c-7.55,7.22-18.11,11-30.71,11h-5.39c-12.72,0-23.39-3.88-30.93-11.21a34.44,34.44,0,0,1-8.19-12.39,40.13,40.13,0,0,1-2.8-14.87,39.55,39.55,0,0,1,2.8-14.76,35.86,35.86,0,0,1,8.19-12.5c7.54-7.33,18.21-11.21,30.93-11.21h5.39c12.71,0,23.38,3.88,30.92,11.21a6.92,6.92,0,0,1,.11,9.7,6.83,6.83,0,0,1-9.7.1c-5-4.74-12.28-7.32-21.33-7.32h-5.39C1037.12,303.85,1026.23,313.44,1026.23,328.63Z" transform="translate(-70.6 -228.17)" fill="#1a79ae"/><path d="M1187.77,297.06v63.15a6.79,6.79,0,0,1-6.79,6.89,6.88,6.88,0,0,1-6.9-6.89V336.39h-53.56v23.82a6.78,6.78,0,0,1-6.78,6.89,6.87,6.87,0,0,1-6.9-6.89V297.06a6.94,6.94,0,0,1,6.9-6.9,6.84,6.84,0,0,1,6.78,6.9V322.7h53.56V297.06a7,7,0,0,1,6.9-6.9A6.85,6.85,0,0,1,1187.77,297.06Z" transform="translate(-70.6 -228.17)" fill="#1a79ae"/><path d="M1244.05,265.8c2.75-3.53,5.2-7,8-10.21,10.14-11.62,22.9-19.23,37.5-23.82,4.47-1.41,9.08-2.4,13.64-3.49,2.09-.5,3.44.76,3.06,2.79-2.85,15.16-8.2,29.25-17.85,41.48a76.73,76.73,0,0,1-18.32,16.72l-1.49,1,4,6.23c1.21,1.9,1,3-.67,4.41q-10.87,8.88-21.75,17.73a7.16,7.16,0,0,1-1.77.73,6.3,6.3,0,0,1-.14-2.18q2.88-9.31,6-18.57a2,2,0,0,0-.61-2.36q-7.66-7.61-15.27-15.29a2.08,2.08,0,0,0-2.48-.61q-9.32,3.09-18.7,6a5.32,5.32,0,0,1-1.91-.17,6,6,0,0,1,.65-1.75q8.87-11,17.8-21.89c1.34-1.64,2.47-1.82,4.28-.67C1240,263.19,1242.06,264.52,1244.05,265.8Zm24.24,8.45a8,8,0,1,0-8-8.13A8,8,0,0,0,1268.29,274.25Z" transform="translate(-70.6 -228.17)" fill="url(#linear-gradient)"/><path d="M1240.67,288.7a40.11,40.11,0,0,0-14.61,19.77c8.21-2.62,14.55-7.77,19.7-14.52,2.08,1.08,2.29,1.63,1.26,3.57a43.17,43.17,0,0,1-10.57,12.56,62.41,62.41,0,0,1-23.37,12.46c-.33.09-.67.15-1.12.25a2.61,2.61,0,0,1,0-.9c4-13.65,11.2-25.15,23.18-33.26a15.66,15.66,0,0,1,1.68-1C1239,286.49,1239,286.49,1240.67,288.7Z" transform="translate(-70.6 -228.17)" fill="url(#linear-gradient-2)"/></svg>